


<!DOCTYPE svg PUBLIC "-//W3C//DTD SVG 1.1//EN" "http://www.w3.org/Graphics/SVG/1.1/DTD/svg11.dtd">
<!-- Uploaded to: SVG Repo, www.svgrepo.com, Transformed by: SVG Repo Mixer Tools -->
<svg height="800px" width="800px" version="1.1" id="Layer_1" xmlns="http://www.w3.org/2000/svg" xmlns:xlink="http://www.w3.org/1999/xlink" viewBox="-51.2 -51.2 614.40 614.40" xml:space="preserve" fill="#000000">

<g id="SVGRepo_bgCarrier" stroke-width="0"/>

<g id="SVGRepo_tracerCarrier" stroke-linecap="round" stroke-linejoin="round"/>

<g id="SVGRepo_iconCarrier"> <path style="fill:#CFCDD6;" d="M138.514,512c-9.205,0-16.668-7.463-16.668-16.668V16.668C121.847,7.463,129.309,0,138.514,0 s16.668,7.463,16.668,16.668v478.665C155.182,504.537,147.719,512,138.514,512z"/> <path style="fill:#DEE1E7;" d="M138.514,512c-9.205,0-16.668-7.463-16.668-16.668V16.668C121.847,7.463,129.309,0,138.514,0V512z"/> <path style="fill:#0E4151;" d="M172.323,512h-67.618c-9.205,0-16.668-7.463-16.668-16.668s7.463-16.668,16.668-16.668h67.618 c9.205,0,16.668,7.463,16.668,16.668S181.528,512,172.323,512z"/> <path style="fill:#144F66;" d="M138.514,512h-33.809c-9.205,0-16.668-7.463-16.668-16.668s7.463-16.668,16.668-16.668h33.809V512z"/> <path style="fill:#BD982A;" d="M365.044,124.836l55.904-79.837c3.565-5.091,4.001-11.743,1.131-17.257 c-2.869-5.513-8.568-8.972-14.784-8.972H124.496c-9.205,0-16.668,7.463-16.668,16.668v178.793c0,9.205,7.463,16.668,16.668,16.668 h282.798c6.216,0,11.915-3.458,14.784-8.972c2.87-5.513,2.434-12.165-1.131-17.257L365.044,124.836z"/> <path style="fill:#D6AC2D;" d="M265.47,18.771H124.496c-9.205,0-16.668,7.463-16.668,16.668v178.793 c0,9.205,7.463,16.668,16.668,16.668H265.47V18.771z"/> 
<text transform="translate(210,213) scale(10, 10)" 
font-size="25"
font-family="fantasy"
fill="#ffffff" 
font-weight="normal" 
 stroke="none"
text-anchor="start"
xml:space="preserve" 
fill-rule="nonzero" stroke-linecap="butt" stroke-linejoin="miter" stroke-miterlimit="10" stroke-dasharray="" stroke-dashoffset="0" style="mix-blend-mode: normal" stroke-width="1">
<tspan x="0" dy="0">?</tspan></text>
</g>

</svg>